# xmcd
#
# Track frame offsets:
#	150
#	26775
#	45300
#	68925
#
# Disc length: 1209 seconds
#
# Revision: 1
# Processed by: cddbd v1.5.1PL0 Copyright (c) Steve Scherf et al.
# Submitted via: CDex 1.50Beta5
#
DISCID=2e04b704
DTITLE=Neo - Red Incognito
DYEAR=1900
DGENRE=Pop
TTITLE0=Red Incognito Home Grown Mix Featuring Rude Boy Face
TTITLE1=あまく危険な香り
TTITLE2=Red Incognito Smooth and Rhythm Mix
TTITLE3=Red Incognito Home Grown Organic and Grownich Remix
EXTD=
EXTT0=
EXTT1=
EXTT2=
EXTT3=
PLAYORDER=
